<?xml version="1.0" standalone="no"?><svg xmlns:xlink="http://www.w3.org/1999/xlink" xmlns="http://www.w3.org/2000/svg" viewBox="0 0 1000 583.335049529419" preserveAspectRatio="xMaxYMax slice"><g transform="scale(1.2871470642749758)"><circle cx="356.08" cy="97.10999999999999" r="32.37" fill="#2a2a2a"/><circle cx="534.125" cy="113.295" r="16.185" fill="#969696"/><circle cx="679.8" cy="97.10999999999999" r="32.37" fill="#171717"/><circle cx="145.675" cy="145.675" r="16.185" fill="#464646"/><circle cx="178.04500000000002" cy="145.675" r="16.185" fill="#0f0f0f"/><circle cx="145.675" cy="178.04500000000002" r="16.185" fill="#4b4b4b"/><circle cx="356.08" cy="161.86" r="32.37" fill="#727272"/><circle cx="679.8" cy="161.86" r="32.37" fill="#9d9d9d"/><circle cx="728.3549999999999" cy="178.04500000000002" r="16.185" fill="#b6b6b6"/><circle cx="80.925" cy="210.415" r="16.185" fill="#afafaf"/><circle cx="113.295" cy="210.415" r="16.185" fill="#ededed"/><circle cx="113.295" cy="242.785" r="16.185" fill="#969696"/><circle cx="161.86" cy="226.6" r="32.37" fill="#7d7d7d"/><circle cx="210.415" cy="210.415" r="16.185" fill="#565656"/><circle cx="210.415" cy="242.785" r="16.185" fill="#a4a4a4"/><circle cx="80.925" cy="275.15500000000003" r="16.185" fill="#a2a2a2"/><circle cx="113.295" cy="275.15500000000003" r="16.185" fill="#010101"/><circle cx="80.925" cy="307.525" r="16.185" fill="#5f5f5f"/><circle cx="113.295" cy="307.525" r="16.185" fill="#161616"/><circle cx="242.785" cy="275.15500000000003" r="16.185" fill="#313131"/><circle cx="210.415" cy="307.525" r="16.185" fill="#0b0b0b"/><circle cx="307.525" cy="275.15500000000003" r="16.185" fill="#0c0c0c"/><circle cx="275.15500000000003" cy="307.525" r="16.185" fill="#6b6b6b"/><circle cx="307.525" cy="307.525" r="16.185" fill="#e7e7e7"/><circle cx="356.08" cy="291.34000000000003" r="32.37" fill="#ededed"/><circle cx="420.83" cy="291.34000000000003" r="32.37" fill="#afafaf"/><circle cx="598.875" cy="275.15500000000003" r="16.185" fill="#303030"/><circle cx="631.2449999999999" cy="307.525" r="16.185" fill="#8e8e8e"/><circle cx="744.54" cy="291.34000000000003" r="32.37" fill="#e5e5e5"/><circle cx="32.37" cy="356.08" r="32.37" fill="#646464"/><circle cx="80.925" cy="339.895" r="16.185" fill="#c7c7c7"/><circle cx="113.295" cy="339.895" r="16.185" fill="#494949"/><circle cx="80.925" cy="372.275" r="16.185" fill="#797979"/><circle cx="113.295" cy="372.275" r="16.185" fill="#6c6c6c"/><circle cx="161.86" cy="356.08" r="32.37" fill="#595959"/><circle cx="226.6" cy="356.08" r="32.37" fill="#4e4e4e"/><circle cx="291.34000000000003" cy="356.08" r="32.37" fill="#b9b9b9"/><circle cx="404.645" cy="339.895" r="16.185" fill="#4f4f4f"/><circle cx="437.015" cy="339.895" r="16.185" fill="#8c8c8c"/><circle cx="404.645" cy="372.275" r="16.185" fill="#dadada"/><circle cx="437.015" cy="372.275" r="16.185" fill="#1b1b1b"/><circle cx="485.57" cy="356.08" r="32.37" fill="#f3f3f3"/><circle cx="534.125" cy="339.895" r="16.185" fill="#686868"/><circle cx="566.4949999999999" cy="339.895" r="16.185" fill="#f9f9f9"/><circle cx="534.125" cy="372.275" r="16.185" fill="#b3b3b3"/><circle cx="566.4949999999999" cy="372.275" r="16.185" fill="#191919"/><circle cx="615.0600000000001" cy="356.08" r="32.37" fill="#666666"/><circle cx="679.8" cy="356.08" r="32.37" fill="#b2b2b2"/><circle cx="744.54" cy="356.08" r="32.37" fill="#868686"/><circle cx="16.185" cy="404.645" r="16.185" fill="#676767"/><circle cx="48.55499999999999" cy="404.645" r="16.185" fill="#888888"/><circle cx="16.185" cy="437.015" r="16.185" fill="#bebebe"/><circle cx="48.55499999999999" cy="437.015" r="16.185" fill="#b4b4b4"/><circle cx="80.925" cy="404.645" r="16.185" fill="#5d5d5d"/><circle cx="113.295" cy="404.645" r="16.185" fill="#0b0b0b"/><circle cx="80.925" cy="437.015" r="16.185" fill="#7a7a7a"/><circle cx="113.295" cy="437.015" r="16.185" fill="#5d5d5d"/><circle cx="161.86" cy="420.83" r="32.37" fill="#585858"/><circle cx="210.415" cy="404.645" r="16.185" fill="#9c9c9c"/><circle cx="242.785" cy="404.645" r="16.185" fill="#8e8e8e"/><circle cx="210.415" cy="437.015" r="16.185" fill="#323232"/><circle cx="242.785" cy="437.015" r="16.185" fill="#5a5a5a"/><circle cx="291.34000000000003" cy="420.83" r="32.37" fill="#919191"/><circle cx="339.895" cy="404.645" r="16.185" fill="#dadada"/><circle cx="372.275" cy="404.645" r="16.185" fill="#ededed"/><circle cx="339.895" cy="437.015" r="16.185" fill="#e5e5e5"/><circle cx="372.275" cy="437.015" r="16.185" fill="#3c3c3c"/><circle cx="420.83" cy="420.83" r="32.37" fill="#dfdfdf"/><circle cx="485.57" cy="420.83" r="32.37" fill="#121212"/><circle cx="550.3100000000001" cy="420.83" r="32.37" fill="#595959"/><circle cx="615.0600000000001" cy="420.83" r="32.37" fill="#2d2d2d"/><circle cx="663.6149999999999" cy="404.645" r="16.185" fill="#cfcfcf"/><circle cx="695.9849999999999" cy="404.645" r="16.185" fill="#b9b9b9"/><circle cx="663.6149999999999" cy="437.015" r="16.185" fill="#f9f9f9"/><circle cx="695.9849999999999" cy="437.015" r="16.185" fill="#747474"/><circle cx="744.54" cy="420.83" r="32.37" fill="#d0d0d0"/></g></svg>